# xmcd
#
# Track frame offsets: 
#        150
#        15312
#        27442
#        43395
#        60080
#        78430
#        95197
#        114767
#        131022
#        147820
#
# Disc length: 2162 seconds
#
# Revision: 0
# Processed by: cddbd v1.5.2PL0 Copyright (c) Steve Scherf et al.
# Submitted via: ExactAudioCopy v1.3
#
DISCID=7b08700a
DTITLE=Deb Ryder - Might Just Get Lucky
DYEAR=2013
DGENRE=Blues
TTITLE0=Get A Grip
TTITLE1=Blue Collar Blues
TTITLE2=Really Gone
TTITLE3=Might Just Get Lucky
TTITLE4=Come On Home To Me
TTITLE5=Ce Soir Ce Soir
TTITLE6=Bad Bad Dream
TTITLE7=The Angels Cried
TTITLE8=Love Stealin Lair
TTITLE9=These Hands 
EXTD=
EXTT0=
EXTT1=
EXTT2=
EXTT3=
EXTT4=
EXTT5=
EXTT6=
EXTT7=
EXTT8=
EXTT9=
PLAYORDER=
